<svg width="36" height="36" viewBox="0 0 36 36" fill="none" xmlns="http://www.w3.org/2000/svg">
<g id="Group 1448">
<g id="Rectangle 1005">
<rect width="36" height="36" fill="#C4C4C4" fill-opacity="0.02"/>
<rect width="36" height="36" stroke="#202124"/>
</g>
<path id="Vector" fill-rule="evenodd" clip-rule="evenodd" d="M27.474 5.80297H31.6098H31.636H31.6541H31.6782H31.7023H31.7285H31.7526H31.7747H31.7988H31.823H31.8451H31.8692H31.8913L31.9135 5.81302H31.9356L31.9577 5.82307L31.9778 5.83513L31.9999 5.8472L32.02 5.85926L32.0421 5.87133L32.0602 5.8854L32.0803 5.89948L32.1004 5.91355L32.1206 5.92763L32.1386 5.94371L32.1567 5.9598L32.1748 5.97387L32.1929 5.99196C32.1993 5.99626 32.2047 6.00172 32.209 6.00805L32.2271 6.02615L32.2432 6.04223L32.2593 6.06033L32.2754 6.07842C32.2796 6.08545 32.2843 6.09217 32.2894 6.09853L32.3035 6.11663L32.3196 6.13673L32.3317 6.15684L32.3457 6.17695L32.3578 6.19705L32.3699 6.21716L32.3819 6.23928L32.394 6.26139V6.2815L32.4061 6.30361V6.32573V6.34986C32.4061 6.34986 32.4061 6.36394 32.4061 6.37198V6.39611C32.4072 6.40343 32.4072 6.41089 32.4061 6.41822V6.44235V6.46648V6.49061V6.51473V6.53886C32.4061 6.53886 32.4061 6.55495 32.4061 6.56299C32.4061 6.57103 32.4061 6.58108 32.4061 6.58913V6.61326C32.4071 6.62194 32.4071 6.63071 32.4061 6.63939C32.4071 6.6474 32.4071 6.65551 32.4061 6.66352C32.405 6.6722 32.405 6.68098 32.4061 6.68966V10.7491C32.4061 11.0158 32.3001 11.2715 32.1116 11.46C31.9231 11.6485 31.6674 11.7545 31.4007 11.7545C31.1341 11.7545 30.8784 11.6485 30.6899 11.46C30.5013 11.2715 30.3954 11.0158 30.3954 10.7491V8.84708L23.5693 15.4822C22.7188 16.206 21.9387 16.1477 21.2128 15.4822L15.1809 10.4677L6.05859 19.5779V17.0143C8.06924 15.0559 12.3238 10.902 14.3264 8.94359C15.0261 8.37056 15.6293 8.41881 16.2505 8.94359L22.5097 14.1431L29.0402 7.80557H27.478C27.2113 7.80557 26.9556 7.69965 26.7671 7.51111C26.5786 7.32258 26.4727 7.06687 26.4727 6.80024C26.4727 6.53362 26.5786 6.27791 26.7671 6.08937C26.9556 5.90084 27.2113 5.79492 27.478 5.79492" fill="white"/>
<path id="Vector_2" fill-rule="evenodd" clip-rule="evenodd" d="M13.9256 16.8232H17.6132C17.8108 16.8238 18.0003 16.9025 18.14 17.0423C18.2798 17.1821 18.3586 17.3715 18.3591 17.5692V29.8019H13.1797V17.5692C13.1802 17.3715 13.259 17.1821 13.3988 17.0423C13.5385 16.9025 13.728 16.8238 13.9256 16.8232Z" fill="white"/>
<path id="Vector_3" fill-rule="evenodd" clip-rule="evenodd" d="M21.0604 20.2637H24.7459C24.9436 20.2642 25.133 20.343 25.2728 20.4827C25.4126 20.6225 25.4913 20.8119 25.4919 21.0096V29.8042H20.3145V21.0096C20.315 20.8119 20.3937 20.6225 20.5335 20.4827C20.6733 20.343 20.8627 20.2642 21.0604 20.2637Z" fill="white"/>
<path id="Vector_4" fill-rule="evenodd" clip-rule="evenodd" d="M28.0716 14.6416H31.7591C31.9568 14.6421 32.1463 14.7209 32.286 14.8607C32.4258 15.0004 32.5046 15.1899 32.5051 15.3875V29.8019H27.3257V15.3875C27.3262 15.1899 27.405 15.0004 27.5448 14.8607C27.6845 14.7209 27.874 14.6421 28.0716 14.6416Z" fill="white"/>
<path id="Vector_5" fill-rule="evenodd" clip-rule="evenodd" d="M6.79429 21.8154H10.4798C10.6775 21.816 10.8669 21.8947 11.0067 22.0345C11.1465 22.1743 11.2252 22.3637 11.2257 22.5614V29.7997H6.04834V22.5614C6.04887 22.3637 6.12763 22.1743 6.26741 22.0345C6.40719 21.8947 6.59661 21.816 6.79429 21.8154Z" fill="white"/>
<path id="Vector_6" fill-rule="evenodd" clip-rule="evenodd" d="M32.1342 33.2209H7.30476C6.1316 33.2209 5.00649 32.7549 4.17694 31.9253C3.34738 31.0958 2.88135 29.9707 2.88135 28.7975V6.52359C2.88135 5.49213 4.46573 5.51827 4.48986 6.52359V28.8055C4.48986 29.5521 4.78643 30.2681 5.31433 30.796C5.84222 31.3239 6.5582 31.6204 7.30476 31.6204H32.1342C33.4853 31.6325 33.415 33.229 32.1342 33.229" fill="white"/>
</g>
</svg>
