<svg width="111" height="28" viewBox="0 0 111 28" fill="none" xmlns="http://www.w3.org/2000/svg">
<g id="Group 27571">
<g id="Group 27707">
<path id="Vector" fill-rule="evenodd" clip-rule="evenodd" d="M15.3657 9.47367H15.2856C14.7055 9.47898 14.1277 9.54785 13.5626 9.67904C13.3367 9.73038 13.1169 9.79199 12.8992 9.86181C12.6815 9.93164 12.4659 10.0138 12.2605 10.1C11.2588 10.5255 10.3542 11.1507 9.60213 11.9374C8.85003 12.7241 8.26616 13.6558 7.88617 14.6757C7.80813 14.881 7.7383 15.1049 7.6808 15.3226C7.48967 16.0121 7.39295 16.7244 7.39328 17.4399V17.559C7.40163 18.1261 7.47048 18.6906 7.59865 19.2431C7.65205 19.469 7.71366 19.6908 7.78348 19.9064C7.85331 20.1262 7.9334 20.3397 8.02171 20.5472C8.44616 21.5493 9.07099 22.4541 9.85784 23.206C10.6447 23.9579 11.5769 24.541 12.5973 24.9195C12.8137 25.0002 13.0293 25.0687 13.2442 25.1248C13.9348 25.3141 14.6476 25.4102 15.3636 25.4103H15.5054C16.4039 25.3945 17.2933 25.2272 18.1361 24.9154C18.3025 24.8517 18.4688 24.7839 18.6331 24.71C18.7974 24.6361 18.9556 24.558 19.1096 24.4759C19.2657 24.3937 19.4197 24.3034 19.5717 24.2089L19.6579 24.1534L19.6846 24.135L19.7442 24.0959C19.8879 24.0015 20.0296 23.8906 20.1713 23.794L20.2494 23.7345L20.3295 23.6708H20.3418C20.4083 23.6273 20.4684 23.5747 20.5205 23.5147C20.5311 23.504 20.5408 23.4924 20.5492 23.4798L20.5759 23.4449L20.6026 23.4038V23.3936C20.6416 23.3246 20.6713 23.2507 20.6909 23.1738C20.6917 23.1581 20.6917 23.1423 20.6909 23.1266C20.7009 23.0786 20.7057 23.0298 20.7053 22.9808V22.9479C20.7033 22.8883 20.695 22.8291 20.6806 22.7713C20.6756 22.7504 20.6695 22.7299 20.6622 22.7097C20.6486 22.6679 20.6314 22.6274 20.6108 22.5885C20.5711 22.5131 20.5206 22.4439 20.4609 22.3832C20.3749 22.2984 20.272 22.2327 20.159 22.1901L20.0912 22.1675C19.9736 22.1316 19.8495 22.1226 19.7279 22.1411C19.6064 22.1595 19.4905 22.2051 19.3889 22.2743L19.2903 22.3524C18.9648 22.6168 18.6132 22.8473 18.2409 23.0403L18.0211 23.1512L17.7952 23.2519L17.5652 23.3443L17.5221 23.3607L17.4789 23.3751C17.1451 23.4959 16.8016 23.5879 16.4521 23.6503L16.2467 23.6831C15.9983 23.7184 15.748 23.7389 15.4971 23.7448H15.2281C14.5633 23.7293 13.9051 23.6101 13.2771 23.3915C13.0861 23.3237 12.8992 23.2478 12.7205 23.1636C12.5419 23.0794 12.3632 22.9869 12.1886 22.8863C11.7246 22.614 11.2974 22.2834 10.9174 21.9026L10.8188 21.804C10.2877 21.2491 9.86246 20.6018 9.56403 19.8941C9.50242 19.7483 9.44492 19.5984 9.39563 19.4464C9.19672 18.8498 9.08872 18.2267 9.07525 17.5981V17.4564V17.3167C9.08886 16.6531 9.2081 15.9959 9.42849 15.3698C9.4942 15.1788 9.57224 14.994 9.65439 14.8112C9.73654 14.6284 9.83101 14.4559 9.93369 14.2814C10.2059 13.8172 10.5357 13.3894 10.9154 13.0081C11.492 12.4321 12.1748 11.9732 12.9259 11.6567C13.0738 11.5951 13.2237 11.5376 13.3757 11.4863C14.0162 11.2736 14.6867 11.1654 15.3616 11.1659H15.5033C16.4306 11.1849 17.3422 11.4089 18.1728 11.8218C19.0033 12.2348 19.7321 12.8264 20.3069 13.5543C20.4951 13.7919 20.6653 14.0432 20.8162 14.306C20.9691 14.5693 21.1016 14.8439 21.2126 15.1275C21.2331 15.1788 21.2536 15.2343 21.2762 15.2979C21.2988 15.3616 21.3193 15.417 21.3358 15.4684C21.4094 15.6941 21.4705 15.9238 21.5186 16.1564C21.5186 16.1995 21.537 16.2447 21.5453 16.294L21.5699 16.4316L21.5966 16.5918H12.9896C12.8083 16.5907 12.6296 16.6352 12.47 16.7211C12.4409 16.7364 12.4127 16.7536 12.3858 16.7725C12.3612 16.7889 12.3345 16.8094 12.3119 16.8279C12.2871 16.8475 12.2638 16.8688 12.242 16.8916L12.2297 16.906L12.2153 16.9224L12.1845 16.9573C12.1308 17.0258 12.0892 17.1029 12.0613 17.1853C12.0613 17.2017 12.051 17.2222 12.0449 17.2407C12.0302 17.3005 12.0226 17.3619 12.0223 17.4235V17.4728C12.0329 17.6221 12.0871 17.7649 12.1784 17.8835C12.1989 17.9082 12.2194 17.9349 12.242 17.9575C12.2646 17.98 12.2893 18.0047 12.3119 18.0252C12.3361 18.0451 12.3615 18.0637 12.3879 18.0807L12.4063 18.093H12.4228C12.514 18.1485 12.613 18.19 12.7164 18.2162L12.7781 18.2306C12.8458 18.2429 12.9145 18.2491 12.9834 18.2491H23.2909V18.1197C23.2909 18.0684 23.2909 18.0088 23.3053 17.941C23.3196 17.8733 23.3053 17.8178 23.3053 17.7665C23.3053 17.7151 23.3053 17.635 23.3053 17.5775V17.405C23.3052 16.7988 23.2363 16.1946 23.0999 15.6039C23.0486 15.3801 22.9869 15.1583 22.9171 14.9426C22.8473 14.727 22.7651 14.5093 22.6789 14.3019C22.2525 13.3103 21.6302 12.4151 20.8492 11.6701C20.0682 10.9251 19.1447 10.3457 18.1341 9.96655C17.9178 9.88577 17.7021 9.81732 17.4872 9.76118C16.7966 9.57186 16.0838 9.47586 15.3678 9.47572L15.3657 9.47367ZM7.84509 10.1493C9.39888 8.51074 11.4482 7.42834 13.6776 7.0688L13.4722 6.64574C11.2457 7.00405 9.19672 8.0783 7.63562 9.70573L7.85947 10.1329L7.84509 10.1493ZM1.32874 12.4597L1.94484 11.2111C1.83635 11.1359 1.74808 11.0351 1.68784 10.9176C1.62761 10.8001 1.59726 10.6696 1.59949 10.5376C1.60173 10.4056 1.63647 10.2762 1.70065 10.1608C1.76483 10.0455 1.85646 9.9477 1.96743 9.87619V8.39343L0 8.38316L6.80798 0H16.9778L13.9096 3.55083C10.2828 3.00865 6.63752 4.62696 4.46267 8.4037H2.81972V9.85771C2.9379 9.92855 3.03575 10.0288 3.10376 10.1486C3.17177 10.2684 3.20763 10.4038 3.20786 10.5416C3.20735 10.6017 3.20047 10.6616 3.18733 10.7203C3.17687 10.7783 3.15747 10.8345 3.12982 10.8866C3.06474 11.0204 2.96377 11.1334 2.8382 11.2131L3.38037 12.4351L1.32874 12.4597ZM15.3575 6.91477C15.1521 6.91477 14.9467 6.91477 14.7414 6.93325L13.4845 4.29632C10.1986 4.2039 7.55758 5.35397 5.79346 8.24761L7.16738 10.8168L7.18791 10.8024C5.67748 12.659 4.84364 14.9742 4.82348 17.3675C4.80331 19.7608 5.59802 22.0898 7.07695 23.9715C8.55589 25.8533 10.631 27.1759 12.9613 27.7219C15.2916 28.268 17.7383 28.0049 19.8993 26.9761C22.0602 25.9472 23.8068 24.2137 24.852 22.0606C25.8971 19.9074 26.1786 17.4628 25.6502 15.1285C25.1218 12.7941 23.8149 10.7091 21.9443 9.21597C20.0738 7.72287 17.7509 6.91062 15.3575 6.91272V6.91477Z" fill="white"/>
<path id="Vector_2" d="M65.6995 10.2231C65.7006 10.2388 65.7006 10.2546 65.6995 10.2703V10.2991C65.6924 10.4088 65.6688 10.5167 65.6297 10.6195C65.5785 10.7487 65.4984 10.8646 65.3956 10.9583C65.3043 11.0444 65.1986 11.1139 65.0834 11.1637C64.9665 11.2105 64.8417 11.2342 64.7158 11.2335H59.2961V24.6934C59.2967 24.8824 59.2433 25.0677 59.1421 25.2273C59.1236 25.2575 59.103 25.2863 59.0805 25.3136C59.0584 25.3425 59.0343 25.37 59.0086 25.3957C58.9316 25.4794 58.8406 25.5489 58.7396 25.6011L58.68 25.6278C58.5547 25.6781 58.4207 25.7033 58.2857 25.7017C58.1098 25.7013 57.9376 25.6515 57.7887 25.558C57.76 25.5416 57.7333 25.521 57.7045 25.5005L57.6265 25.4389C57.5422 25.364 57.4726 25.2742 57.4211 25.1739L57.3923 25.1144C57.3389 24.9841 57.3117 24.8445 57.3123 24.7037V11.2438H55.5317C55.3905 11.2456 55.2506 11.2176 55.121 11.1616C54.9916 11.1059 54.8775 11.02 54.7883 10.9111C54.7059 10.8177 54.6406 10.7107 54.5952 10.5948C54.5508 10.4787 54.5279 10.3556 54.5274 10.2313C54.5222 10.0317 54.5765 9.8351 54.6835 9.66654C54.7048 9.63428 54.7281 9.60342 54.7534 9.57413C54.7793 9.54406 54.8075 9.51592 54.8376 9.48992C54.9151 9.42144 55.0023 9.3647 55.0963 9.32152H55.1086L55.1456 9.30715C55.2649 9.26151 55.3917 9.23852 55.5194 9.23937H57.2979V7.18569C57.2973 7.00562 57.344 6.82856 57.4334 6.67226C57.4519 6.6394 57.4704 6.6086 57.4889 6.5819C57.5073 6.5552 57.5299 6.52645 57.5546 6.4977C57.6428 6.39082 57.7546 6.30577 57.8811 6.2492C58.0072 6.19348 58.1438 6.16547 58.2816 6.16706C58.4059 6.16746 58.529 6.19043 58.6451 6.23483C58.761 6.28146 58.8685 6.34666 58.9634 6.42787C59.0549 6.50451 59.1309 6.59791 59.1873 6.70307C59.1988 6.72297 59.2091 6.74354 59.2181 6.76468C59.273 6.89461 59.3009 7.03435 59.3002 7.17542V9.22911H64.7569C64.9409 9.23493 65.119 9.29572 65.2682 9.40367C65.3 9.42627 65.3302 9.45097 65.3586 9.4776L65.3689 9.48787C65.4709 9.58137 65.5526 9.69493 65.6088 9.82143C65.665 9.94794 65.6945 10.0847 65.6954 10.2231" fill="white"/>
<path id="Vector_3" d="M38.3706 24.7039C38.3729 24.8443 38.3478 24.9838 38.2967 25.1146C38.2451 25.2461 38.1652 25.3646 38.0626 25.4617C38.0375 25.4861 38.0107 25.5087 37.9825 25.5294L37.8962 25.5911C37.7455 25.6917 37.5701 25.7493 37.389 25.7574C37.2533 25.7647 37.1176 25.7437 36.9905 25.6958C36.8631 25.6463 36.7492 25.5675 36.6579 25.4658C36.6353 25.4409 36.614 25.4148 36.5942 25.3877C36.5739 25.3602 36.5553 25.3314 36.5387 25.3015C36.45 25.1488 36.4039 24.975 36.4052 24.7983L36.3827 14.7353C36.3827 14.4871 36.3587 14.2395 36.3108 13.9959C36.3108 13.9507 36.2923 13.9117 36.2861 13.8809C36.2411 13.6888 36.1807 13.5006 36.1054 13.3182C36.0127 13.1028 35.8999 12.8965 35.7686 12.7021C35.6431 12.5133 35.4986 12.3378 35.3373 12.1784C35.1773 12.0201 35.0011 11.879 34.8116 11.7574C34.6178 11.632 34.4112 11.5274 34.1955 11.4452C34.1318 11.4206 34.0702 11.398 34.0106 11.3795C33.9552 11.361 33.8915 11.3426 33.8258 11.3261C33.4939 11.2418 33.1513 11.2072 32.8092 11.2235C32.5668 11.2344 32.326 11.2695 32.0904 11.3282C31.8599 11.3867 31.6362 11.4693 31.423 11.5746C31.2069 11.6799 31.0007 11.8043 30.8069 11.9463C30.6157 12.0859 30.4383 12.2433 30.277 12.4166C30.1149 12.5896 29.9691 12.7773 29.8417 12.9773C29.7112 13.1797 29.5991 13.3935 29.5069 13.616C29.4864 13.6694 29.4617 13.7331 29.4371 13.807C29.4124 13.8809 29.3898 13.9425 29.3734 14C29.2785 14.341 29.2315 14.6935 29.2338 15.0474V24.6998C29.2357 24.8405 29.2091 24.9802 29.1557 25.1105L29.127 25.1721C29.0752 25.2764 29.0057 25.3709 28.9216 25.4514C28.897 25.474 28.8703 25.4986 28.8415 25.5212C28.8128 25.5438 28.7881 25.5623 28.7553 25.5849C28.6246 25.6729 28.475 25.7286 28.3186 25.7475C28.1622 25.7664 28.0036 25.748 27.8557 25.6937C27.7269 25.6458 27.6114 25.5676 27.5189 25.4658C27.4311 25.3774 27.3614 25.2728 27.3136 25.1577C27.2684 25.0412 27.2454 24.9172 27.2458 24.7922V10.4287C27.243 10.2876 27.2703 10.1476 27.3259 10.0179L27.3546 9.95632C27.4103 9.853 27.484 9.76049 27.5723 9.68318C27.5992 9.6591 27.6273 9.63648 27.6565 9.61541L27.7428 9.55996C27.8959 9.46583 28.0705 9.41213 28.25 9.40388C28.382 9.39621 28.5141 9.41579 28.6382 9.46138C28.7591 9.50859 28.8678 9.58227 28.9565 9.67702C28.9795 9.70159 29.0007 9.72766 29.0202 9.75506C29.1428 9.92484 29.2089 10.1289 29.2091 10.3383V10.6772C29.2913 10.6032 29.3734 10.5314 29.4597 10.4718C29.6137 10.3465 29.7739 10.2295 29.9361 10.1206C30.0984 10.0118 30.2709 9.91525 30.4496 9.81462L30.5933 9.74069L30.7453 9.66675C31.0113 9.5487 31.2859 9.45121 31.5668 9.37513C31.7621 9.32058 31.9602 9.2767 32.1603 9.24369C32.3656 9.21289 32.571 9.19235 32.7764 9.18208C33.1499 9.16406 33.5243 9.18471 33.8936 9.24369L34.0702 9.27655C34.3693 9.33597 34.6622 9.42329 34.9451 9.53737C35.0354 9.57434 35.1258 9.61336 35.2182 9.65649C35.3106 9.69961 35.4051 9.74685 35.4872 9.78997C35.9488 10.023 36.3737 10.3227 36.7482 10.6792C36.816 10.7449 36.8838 10.8148 36.9536 10.8846C37.0234 10.9544 37.0809 11.0283 37.1446 11.1084C37.4684 11.5111 37.7345 11.9569 37.9352 12.4331C37.9743 12.5296 38.0133 12.6241 38.0461 12.7206C38.079 12.8171 38.1098 12.9095 38.1406 13.0163C38.2923 13.5381 38.3684 14.0789 38.3665 14.6223V24.6854L38.3706 24.7039Z" fill="white"/>
<path id="Vector_4" d="M110.834 10.2232V10.3033C110.826 10.4131 110.802 10.5211 110.762 10.6237C110.71 10.7531 110.629 10.869 110.526 10.9626C110.434 11.0491 110.328 11.1187 110.212 11.1679C110.094 11.2145 109.969 11.2382 109.842 11.2378H103.681V24.6976C103.682 24.8865 103.629 25.0717 103.529 25.2316C103.51 25.2604 103.489 25.2891 103.467 25.3179C103.447 25.3446 103.422 25.3713 103.396 25.4C103.318 25.4832 103.227 25.5527 103.126 25.6054L103.067 25.6321C102.941 25.6827 102.806 25.7078 102.671 25.706C102.494 25.7053 102.321 25.6555 102.172 25.5622L102.087 25.5047C102.06 25.4856 102.033 25.4651 102.007 25.4431C101.923 25.3682 101.853 25.2784 101.802 25.1782C101.79 25.1536 101.781 25.133 101.773 25.1186C101.719 24.9885 101.693 24.8487 101.695 24.7079V11.2439H99.9125C99.7713 11.2455 99.6314 11.2175 99.5017 11.1618C99.3733 11.1054 99.2601 11.0196 99.1711 10.9112C99.0888 10.8179 99.0234 10.7108 98.978 10.595C98.9318 10.4793 98.9081 10.356 98.9082 10.2315C98.9037 10.0317 98.9587 9.83507 99.0664 9.66669C99.087 9.63396 99.1103 9.60304 99.1362 9.57427C99.1615 9.54424 99.1889 9.5161 99.2183 9.49007C99.2966 9.42153 99.3845 9.3648 99.4791 9.32167H99.4894L99.5264 9.30729H99.5367C99.6559 9.26165 99.7827 9.23867 99.9104 9.23952H101.693V7.18583C101.692 7.00577 101.739 6.82871 101.829 6.67241C101.847 6.63955 101.868 6.60875 101.886 6.58205C101.905 6.55535 101.927 6.5266 101.95 6.49785C102.039 6.39184 102.15 6.30697 102.276 6.24935C102.406 6.1923 102.546 6.16426 102.687 6.1672C102.811 6.16761 102.934 6.19057 103.051 6.23497C103.166 6.28117 103.273 6.34642 103.367 6.42802C103.458 6.5047 103.533 6.59812 103.589 6.70322C103.599 6.72318 103.609 6.74375 103.617 6.76483C103.674 6.89433 103.703 7.03426 103.702 7.17556V9.22925H109.912C110.096 9.23469 110.274 9.29553 110.423 9.40382C110.455 9.4259 110.486 9.45063 110.514 9.47775L110.526 9.48802C110.627 9.58193 110.708 9.69561 110.764 9.82206C110.82 9.9485 110.849 10.085 110.85 10.2232" fill="white"/>
<path id="Vector_5" d="M73.6945 25.1079C73.6543 25.1988 73.601 25.2832 73.5364 25.3585C73.472 25.4292 73.3988 25.4913 73.3187 25.5433L73.294 25.5577L73.2242 25.5967L73.1523 25.6296C73.0397 25.6745 72.9202 25.6995 72.7991 25.7035H72.7621C72.672 25.7049 72.5822 25.6938 72.4951 25.6707H72.4664C72.3988 25.649 72.3334 25.6208 72.2713 25.5865C72.1772 25.5337 72.0937 25.4641 72.0248 25.3811C71.9592 25.3001 71.9052 25.2102 71.8646 25.1141L65.7857 10.6787C65.7281 10.5492 65.696 10.4097 65.6913 10.268C65.6871 10.125 65.7204 9.98343 65.7878 9.85725C65.9002 9.6425 66.085 9.47446 66.3094 9.38285C66.4238 9.33375 66.5464 9.30658 66.6709 9.30276C66.7905 9.29995 66.9098 9.31659 67.0241 9.35204C67.0629 9.36233 67.1007 9.37608 67.1371 9.39312C67.1733 9.41062 67.2083 9.43051 67.2418 9.45267C67.4141 9.56663 67.5463 9.73186 67.6197 9.92502L72.7662 22.1239L77.884 9.92502C77.9372 9.79514 78.0138 9.67611 78.1099 9.57384C78.2115 9.46871 78.339 9.3922 78.4796 9.35204L78.5207 9.33972C78.553 9.33025 78.586 9.3227 78.6192 9.31713C78.6518 9.311 78.6847 9.30689 78.7178 9.30481C78.8777 9.2923 79.0383 9.31836 79.186 9.3808C79.2979 9.42713 79.4013 9.49167 79.4921 9.57179C79.5811 9.65309 79.6567 9.74807 79.7159 9.85314C79.7855 9.97878 79.8216 10.1202 79.8206 10.2639C79.817 10.4099 79.7842 10.5538 79.7241 10.6869L73.6678 25.1079H73.6945Z" fill="white"/>
<path id="Vector_6" fill-rule="evenodd" clip-rule="evenodd" d="M52.6237 24.0548C52.4799 24.1657 52.3279 24.2725 52.1718 24.3752C51.9665 24.5107 51.7611 24.6401 51.527 24.7592C50.3537 25.3864 49.0436 25.7137 47.7133 25.7121C46.6483 25.7127 45.5936 25.5033 44.6096 25.0961C43.6255 24.6888 42.7313 24.0917 41.9782 23.3387C41.225 22.5857 40.6276 21.6917 40.2201 20.7077C39.8126 19.7238 39.603 18.6692 39.6033 17.6042C39.6027 16.5392 39.8121 15.4845 40.2193 14.5004C40.6266 13.5164 41.2237 12.6222 41.9767 11.869C42.7297 11.1159 43.6237 10.5185 44.6077 10.111C45.5916 9.70347 46.6462 9.49387 47.7112 9.49414C49.8618 9.49414 51.9243 10.3483 53.4452 11.8688C54.966 13.3893 55.8207 15.4515 55.8213 17.6021C55.8213 17.7109 55.8213 17.8342 55.8213 17.9677C55.8213 18.1011 55.8069 18.2038 55.7966 18.3271L55.772 18.5838H44.6389C44.4029 18.5841 44.1748 18.499 43.9966 18.3442C43.8185 18.1895 43.7023 17.9755 43.6696 17.7418C43.6613 17.6964 43.6572 17.6503 43.6573 17.6042V17.5857C43.6626 17.3293 43.7681 17.0851 43.9512 16.9055C44.1343 16.7259 44.3804 16.625 44.6369 16.6245H53.786C53.6681 15.8893 53.4176 15.1816 53.0467 14.5359C52.5066 13.5979 51.7284 12.8191 50.7909 12.2782C49.8533 11.7373 48.7895 11.4535 47.7071 11.4554C46.0749 11.4554 44.5094 12.1031 43.3542 13.2563C42.1991 14.4095 41.5488 15.974 41.5461 17.6062C41.5449 18.4143 41.7036 19.2147 42.013 19.9612C42.3225 20.7077 42.7766 21.3857 43.3492 21.9559C43.9197 22.5276 44.5974 22.9812 45.3434 23.2906C46.0895 23.6 46.8892 23.7592 47.6969 23.7591C48.4075 23.759 49.1127 23.636 49.7814 23.3956C49.8799 23.3586 49.9867 23.3175 50.0935 23.2723C50.5238 23.0896 50.9318 22.8581 51.3093 22.5823C51.3997 22.5268 52.0733 21.9929 52.6812 22.5987C52.8636 22.7833 52.966 23.0323 52.966 23.2919C52.966 23.5514 52.8636 23.8004 52.6812 23.985L52.6052 24.061" fill="white"/>
<path id="Vector_7" d="M82.697 24.7036C82.6995 24.8444 82.6729 24.9842 82.619 25.1143C82.619 25.1308 82.6026 25.1492 82.5902 25.1739C82.5387 25.2753 82.4691 25.3665 82.3849 25.4429C82.2956 25.5286 82.192 25.5981 82.0789 25.6483C81.9646 25.6969 81.8416 25.7221 81.7174 25.7222C81.5807 25.723 81.4453 25.6965 81.319 25.6442C81.1906 25.5897 81.0767 25.506 80.9863 25.3998C80.8994 25.3076 80.8299 25.2004 80.7809 25.0835C80.7358 24.9655 80.7128 24.8402 80.7132 24.7139V10.1614C80.7122 10.0207 80.7387 9.88122 80.7912 9.75068C80.8463 9.62201 80.929 9.50703 81.0335 9.41388C81.0561 9.39334 81.0849 9.37075 81.1177 9.34611L81.2081 9.2845C81.3635 9.18827 81.5429 9.13774 81.7256 9.13868C81.8604 9.13884 81.9938 9.16608 82.1179 9.21878L82.1774 9.24753C82.2757 9.3002 82.364 9.36971 82.4383 9.4529C82.4626 9.48024 82.4852 9.50904 82.506 9.53915C82.5273 9.56932 82.5465 9.60088 82.5635 9.63362C82.6488 9.79653 82.6865 9.98014 82.6724 10.1635V24.6933L82.697 24.7036Z" fill="white"/>
<path id="Vector_8" fill-rule="evenodd" clip-rule="evenodd" d="M81.7076 5.61231C81.9697 5.6119 82.2261 5.68929 82.4443 5.83469C82.6624 5.98009 82.8325 6.18694 82.933 6.42907C83.0336 6.6712 83.06 6.93771 83.0089 7.19485C82.9579 7.452 82.8317 7.68821 82.6463 7.87359C82.4609 8.05896 82.2247 8.18517 81.9676 8.23621C81.7104 8.28726 81.4439 8.26085 81.2018 8.16034C80.9596 8.05983 80.7528 7.88973 80.6074 7.67158C80.462 7.45343 80.3846 7.19704 80.385 6.93488C80.385 6.58411 80.5244 6.24771 80.7724 5.99968C81.0204 5.75165 81.3568 5.61231 81.7076 5.61231Z" fill="white"/>
<path id="Vector_9" fill-rule="evenodd" clip-rule="evenodd" d="M97.0422 24.055C96.8964 24.1659 96.7444 24.2727 96.5884 24.3754C96.383 24.5109 96.1673 24.6403 95.9435 24.7594C94.7703 25.3866 93.4601 25.7139 92.1298 25.7123C89.9792 25.7123 87.9167 24.8582 86.3959 23.3377C84.875 21.8172 84.0203 19.7549 84.0198 17.6044C84.0192 16.5392 84.2285 15.4843 84.6357 14.5C85.0429 13.5157 85.64 12.6213 86.393 11.8678C87.1459 11.1143 88.0399 10.5165 89.0238 10.1086C90.0078 9.70061 91.0625 9.4905 92.1277 9.49023C94.2783 9.49023 96.3408 10.3444 97.8617 11.8649C99.3825 13.3854 100.237 15.4476 100.238 17.5982C100.238 17.707 100.238 17.8303 100.238 17.9638C100.238 18.0972 100.223 18.1999 100.213 18.3232L100.191 18.5799H89.0595C88.8235 18.5802 88.5954 18.4951 88.4172 18.3403C88.2391 18.1856 88.1229 17.9716 88.0902 17.7378C88.0819 17.6925 88.0778 17.6464 88.0779 17.6003V17.5818C88.0832 17.3253 88.1887 17.0812 88.3718 16.9016C88.5549 16.722 88.801 16.6211 89.0575 16.6206H98.2046C98.1544 16.2992 98.0775 15.9825 97.9746 15.6739C97.8445 15.2768 97.6738 14.8941 97.4653 14.532C96.9252 13.594 96.147 12.8152 95.2094 12.2743C94.2718 11.7334 93.2081 11.4496 92.1257 11.4515C90.4952 11.4542 88.9323 12.1031 87.7794 13.256C86.6265 14.4089 85.9776 15.9718 85.9749 17.6023C85.9741 18.4104 86.1331 19.2106 86.4425 19.9571C86.7519 20.7035 87.2058 21.3815 87.778 21.952C88.3481 22.5237 89.0255 22.9772 89.7712 23.2866C90.5169 23.596 91.3163 23.7552 92.1236 23.7552C92.8336 23.7553 93.5382 23.6323 94.2061 23.3917C94.3047 23.3547 94.4114 23.3136 94.5182 23.2684C94.9488 23.0862 95.3568 22.8546 95.734 22.5784C95.8264 22.5229 96.5 21.989 97.1079 22.5948C97.2894 22.7799 97.3911 23.0287 97.3911 23.2879C97.3911 23.5471 97.2894 23.796 97.1079 23.9811C97.1079 23.9811 97.034 24.057 97.032 24.057" fill="white"/>
</g>
</g>
</svg>
