<svg width="36" height="36" viewBox="0 0 36 36" fill="none" xmlns="http://www.w3.org/2000/svg">
<g id="Group 27569">
<path id="Vector" d="M29.375 33H6.875C6.36719 33 5.92773 32.8193 5.55664 32.458C5.18555 32.0967 5 31.6523 5 31.125V4.9043C5 4.37695 5.18555 3.93262 5.55664 3.57129C5.92773 3.20996 6.36719 3.0293 6.875 3.0293H20V13.3418C20 13.5957 20.0928 13.8154 20.2783 14.001C20.4639 14.1865 20.6836 14.2793 20.9375 14.2793H31.25V31.125C31.25 31.6523 31.0693 32.0967 30.708 32.458C30.3467 32.8193 29.9023 33 29.375 33ZM26.5625 27.375H25.625V20.8125C25.625 20.5586 25.5322 20.3389 25.3467 20.1533C25.1611 19.9678 24.9414 19.875 24.6875 19.875H22.8125C22.5586 19.875 22.3389 19.9678 22.1533 20.1533C21.9678 20.3389 21.875 20.5586 21.875 20.8125V27.375H20V17.0625C20 16.8086 19.9072 16.5889 19.7217 16.4033C19.5361 16.2178 19.3164 16.125 19.0625 16.125H17.1875C16.9336 16.125 16.7139 16.2178 16.5283 16.4033C16.3428 16.5889 16.25 16.8086 16.25 17.0625V27.375H14.375V22.6875C14.375 22.4336 14.2822 22.2139 14.0967 22.0283C13.9111 21.8428 13.6914 21.75 13.4375 21.75H11.5625C11.3086 21.75 11.0889 21.8428 10.9033 22.0283C10.7178 22.2139 10.625 22.4336 10.625 22.6875V27.375H9.6875C9.43359 27.375 9.21387 27.4678 9.02832 27.6533C8.84277 27.8389 8.75 28.0586 8.75 28.3125C8.75 28.5664 8.84277 28.7861 9.02832 28.9717C9.21387 29.1572 9.43359 29.25 9.6875 29.25H26.5625C26.8359 29.25 27.0605 29.1572 27.2363 28.9717C27.4121 28.7861 27.5 28.5664 27.5 28.3125C27.5 28.0586 27.4072 27.8389 27.2217 27.6533C27.0361 27.4678 26.8164 27.375 26.5625 27.375ZM21.875 3C22.3828 3 22.8125 3.17578 23.1641 3.52734L30.6934 11.0566C31.0645 11.4277 31.25 11.877 31.25 12.4043H21.875V3Z" fill="white"/>
</g>
</svg>
