<svg width="36" height="36" viewBox="0 0 36 36" fill="none" xmlns="http://www.w3.org/2000/svg">
<g id="Group 1443">
<g id="Rectangle 1012">
<rect width="36" height="36" fill="#C4C4C4" fill-opacity="0.02"/>
<rect width="36" height="36" stroke="#202124"/>
</g>
<g id="Group 1393">
<path id="Vector" d="M8.44417 12.583C8.23443 12.6203 8.04196 12.7232 7.89451 12.8769L3.73242 16.9641M28.749 12.583C28.9589 12.6199 29.1515 12.7229 29.2987 12.8769L33.4623 16.9611L28.749 12.583Z" stroke="#0078D4" stroke-width="1.1" stroke-miterlimit="2.61"/>
<g id="Vector_2">
<path d="M8.33789 16.6711V8.45394C8.33789 6.97229 9.0731 5.75684 9.97729 5.75684H27.1717C28.0699 5.75684 28.8022 6.97022 28.8022 8.45394V16.6711" fill="white"/>
<path d="M8.33789 16.6711V8.45394C8.33789 6.97229 9.0731 5.75684 9.97729 5.75684H27.1717C28.0699 5.75684 28.8022 6.97022 28.8022 8.45394V16.6711" stroke="#0078D4" stroke-width="1.1" stroke-miterlimit="2.61"/>
</g>
<path id="Vector_3" d="M8.93896 6.29785L18.5947 12.8908L28.2504 6.29785" stroke="#0078D4" stroke-width="1.1" stroke-miterlimit="2.61"/>
<path id="Vector_4" d="M5.52577 16.2549H12.611L13.7368 19.1942C13.847 19.4881 13.9896 19.7571 14.2982 19.7571H22.8913C23.2014 19.7571 23.344 19.4837 23.4542 19.1942L24.5785 16.2549H31.6652C32.3668 16.2549 33.0397 16.5336 33.5358 17.0297C34.0319 17.5258 34.3106 18.1987 34.3106 18.9003V29.0292C34.3106 29.7308 34.0319 30.4037 33.5358 30.8998C33.0397 31.3959 32.3668 31.6746 31.6652 31.6746H5.52577C4.82416 31.6746 4.1513 31.3959 3.65519 30.8998C3.15908 30.4037 2.88037 29.7308 2.88037 29.0292V18.9003C2.88037 18.1987 3.15908 17.5258 3.65519 17.0297C4.1513 16.5336 4.82416 16.2549 5.52577 16.2549Z" fill="white" stroke="#0078D4" stroke-width="1.1" stroke-miterlimit="2.61"/>
</g>
</g>
</svg>
