<svg width="36" height="36" viewBox="0 0 36 36" fill="none" xmlns="http://www.w3.org/2000/svg">
<g id="Group 27570">
<path id="Vector" d="M18.0058 13.5245C16.9473 13.5245 15.9561 13.9351 15.2056 14.6856C14.4587 15.4361 14.0445 16.4273 14.0445 17.4857C14.0445 18.5442 14.4587 19.5354 15.2056 20.2859C15.9561 21.0328 16.9473 21.447 18.0058 21.447C19.0642 21.447 20.0554 21.0328 20.8059 20.2859C21.5528 19.5354 21.967 18.5442 21.967 17.4857C21.967 16.4273 21.5528 15.4361 20.8059 14.6856C20.4393 14.3162 20.003 14.0234 19.5224 13.824C19.0417 13.6247 18.5261 13.5229 18.0058 13.5245ZM32.6012 21.8612L30.286 19.8823C30.3958 19.2097 30.4524 18.523 30.4524 17.8397C30.4524 17.1565 30.3958 16.4662 30.286 15.7972L32.6012 13.8183C32.7761 13.6686 32.9013 13.4692 32.9601 13.2466C33.0189 13.024 33.0085 12.7888 32.9304 12.5722L32.8986 12.4802C32.2614 10.6985 31.3067 9.04693 30.0807 7.60559L30.017 7.53125C29.8681 7.35621 29.6697 7.23038 29.4479 7.17034C29.2261 7.11031 28.9913 7.11889 28.7744 7.19495L25.9 8.21801C24.838 7.34717 23.6556 6.66041 22.3741 6.18251L21.8183 3.17705C21.7764 2.95064 21.6666 2.74235 21.5034 2.57984C21.3403 2.41734 21.1316 2.30832 20.905 2.26727L20.8094 2.24957C18.9686 1.91681 17.0287 1.91681 15.1879 2.24957L15.0923 2.26727C14.8658 2.30832 14.657 2.41734 14.4939 2.57984C14.3308 2.74235 14.2209 2.95064 14.179 3.17705L13.6197 6.19667C12.3503 6.67838 11.1679 7.36348 10.1186 8.22509L7.22291 7.19495C7.00614 7.11829 6.77117 7.1094 6.54923 7.16947C6.32729 7.22954 6.12888 7.35572 5.98037 7.53125L5.91665 7.60559C4.69284 9.04846 3.73838 10.6996 3.09881 12.4802L3.06695 12.5722C2.90765 13.0147 3.03863 13.5103 3.39617 13.8183L5.73965 15.8184C5.62991 16.4839 5.57681 17.1636 5.57681 17.8362C5.57681 18.5159 5.62991 19.1956 5.73965 19.854L3.40325 21.8541C3.22835 22.0038 3.10318 22.2032 3.04437 22.4258C2.98557 22.6484 2.99591 22.8836 3.07403 23.1002L3.10589 23.1922C3.74663 24.9728 4.69181 26.619 5.92373 28.0668L5.98745 28.1412C6.13632 28.3162 6.33474 28.442 6.55655 28.5021C6.77836 28.5621 7.01315 28.5535 7.22999 28.4775L10.1257 27.4473C11.1806 28.3146 12.3559 29.0014 13.6268 29.4757L14.1861 32.4954C14.228 32.7218 14.3379 32.9301 14.501 33.0926C14.6641 33.2551 14.8728 33.3641 15.0994 33.4051L15.195 33.4228C17.0539 33.7574 18.9576 33.7574 20.8165 33.4228L20.9121 33.4051C21.1387 33.3641 21.3474 33.2551 21.5105 33.0926C21.6737 32.9301 21.7835 32.7218 21.8254 32.4954L22.3812 29.4899C23.6627 29.0085 24.845 28.3252 25.907 27.4544L28.7815 28.4775C28.9983 28.5541 29.2333 28.563 29.4552 28.5029C29.6771 28.4429 29.8756 28.3167 30.0241 28.1412L30.0878 28.0668C31.3197 26.6119 32.2649 24.9728 32.9056 23.1922L32.9375 23.1002C33.0897 22.6612 32.9587 22.1692 32.6012 21.8612ZM18.0058 23.7091C14.5684 23.7091 11.7824 20.9231 11.7824 17.4857C11.7824 14.0484 14.5684 11.2624 18.0058 11.2624C21.4431 11.2624 24.2291 14.0484 24.2291 17.4857C24.2291 20.9231 21.4431 23.7091 18.0058 23.7091Z" fill="white"/>
</g>
</svg>
