<svg width="36" height="36" viewBox="0 0 36 36" fill="none" xmlns="http://www.w3.org/2000/svg">
<g id="Group 1151">
<g id="Rectangle 1015">
<rect width="36" height="36" fill="#C4C4C4" fill-opacity="0.02"/>
<rect width="36" height="36" stroke="#202124"/>
</g>
<path id="Subtract" fill-rule="evenodd" clip-rule="evenodd" d="M27.0232 13.9808C27.0232 8.32605 21.4774 3.75195 14.6354 3.75195C7.79572 3.75195 2.25 8.33177 2.25 13.9808C2.25 17.1712 4.01689 20.0214 6.78852 21.8968L6.82038 21.9511C6.89195 22.0688 6.93764 22.2051 6.95345 22.3482C6.96927 22.4912 6.9547 22.6367 6.91105 22.7716C6.36697 23.8919 5.67474 24.9049 4.85989 25.7734C3.664 27.0312 4.24724 27.36 5.92346 27.0312C8.14615 26.3851 10.3517 25.2988 12.5572 24.0695C13.2469 24.1652 13.9408 24.213 14.6354 24.2125C21.4774 24.2125 27.0232 19.6355 27.0232 13.9808ZM13.3781 26.9039C15.5346 28.4076 18.3209 29.3139 21.3646 29.3139C22.0583 29.3145 22.7514 29.2667 23.4402 29.1709C25.6458 30.4031 27.8513 31.4866 30.0765 32.1327C31.7527 32.4643 32.3359 32.1327 31.1376 30.8777C30.3235 30.008 29.6321 28.994 29.0889 27.873C29.0447 27.7384 29.0296 27.593 29.045 27.4499C29.0604 27.3068 29.1057 27.1703 29.1771 27.0526L29.2114 26.9983C31.983 25.1229 33.7499 22.2726 33.7499 19.0851C33.7499 15.8032 31.8801 12.8843 28.9761 11.0146C29.3047 12.1067 29.4704 13.2564 29.4663 14.4138C29.4663 21.4007 23.3055 27.064 15.7037 27.064C14.9317 27.0633 14.1606 27.0041 13.3952 26.8868L13.3781 26.9039ZM9.75008 14.2512C9.75008 15.0797 9.0785 15.7512 8.25007 15.7512C7.42164 15.7512 6.75006 15.0797 6.75006 14.2512C6.75006 13.4228 7.42164 12.7512 8.25007 12.7512C9.0785 12.7512 9.75008 13.4228 9.75008 14.2512ZM14.2503 15.752C15.0787 15.752 15.7503 15.0804 15.7503 14.252C15.7503 13.4235 15.0787 12.752 14.2503 12.752C13.4218 12.752 12.7502 13.4235 12.7502 14.252C12.7502 15.0804 13.4218 15.752 14.2503 15.752ZM20.2499 15.752C21.0783 15.752 21.7499 15.0804 21.7499 14.252C21.7499 13.4235 21.0783 12.752 20.2499 12.752C19.4215 12.752 18.7499 13.4235 18.7499 14.252C18.7499 15.0804 19.4215 15.752 20.2499 15.752Z" fill="white"/>
</g>
</svg>
