<svg width="36" height="36" viewBox="0 0 36 36" fill="none" xmlns="http://www.w3.org/2000/svg">
<g id="Group 1146">
<g id="Rectangle 1010">
<rect width="36" height="36" fill="#C4C4C4" fill-opacity="0.02"/>
<rect width="36" height="36" stroke="#202124"/>
</g>
<g id="Group 1118">
<path id="Union" fill-rule="evenodd" clip-rule="evenodd" d="M21.6348 12.3583C21.6348 14.254 20.098 15.7908 18.2023 15.7908C16.3066 15.7908 14.7698 14.254 14.7698 12.3583C14.7698 10.4626 16.3066 8.92578 18.2023 8.92578C20.098 8.92578 21.6348 10.4626 21.6348 12.3583ZM20.8027 16.5358H15.569C14.5905 16.536 13.6522 16.9249 12.9603 17.6168C12.2685 18.3088 11.8799 19.2472 11.8799 20.2257V24.5181C11.8799 24.794 11.9895 25.0585 12.1845 25.2536C12.3796 25.4487 12.6442 25.5582 12.92 25.5582H23.4525C23.7284 25.5582 23.9929 25.4487 24.188 25.2536C24.3831 25.0585 24.4926 24.794 24.4926 24.5181V20.2257C24.4926 19.2471 24.1039 18.3085 23.4119 17.6165C22.7199 16.9245 21.7813 16.5358 20.8027 16.5358Z" fill="white"/>
<path id="Rectangle 825" d="M4.92031 4.87695C4.92031 4.10376 5.54711 3.47695 6.32031 3.47695H26.2003C28.6304 3.47695 30.6003 5.4469 30.6003 7.87695V27.117C30.6003 30.0993 28.1826 32.517 25.2003 32.517H6.32031C5.54711 32.517 4.92031 31.8902 4.92031 31.117V4.87695Z" stroke="white" stroke-width="1.2"/>
</g>
</g>
</svg>
