<svg width="38" height="42" viewBox="0 0 38 42" fill="none" xmlns="http://www.w3.org/2000/svg">
<path id="Vector" fill-rule="evenodd" clip-rule="evenodd" d="M22.562 13.8934H22.4432C21.5908 13.9024 20.7419 14.0043 19.9115 14.1974C19.5838 14.2734 19.2561 14.3637 18.9378 14.4634C18.6196 14.5632 18.3061 14.6867 17.9878 14.8149C16.5195 15.4404 15.1941 16.3585 14.0924 17.5133C12.9908 18.668 12.136 20.0352 11.5802 21.5312C11.4615 21.8495 11.3617 22.1677 11.2715 22.4812C10.9945 23.4951 10.8539 24.5414 10.8535 25.5924V25.7681C10.8674 26.5999 10.9693 27.4278 11.1575 28.2381C11.2335 28.5706 11.3237 28.8983 11.4235 29.1881C11.528 29.5111 11.6467 29.8246 11.775 30.138C12.3961 31.6124 13.3124 32.9439 14.4674 34.0508C15.6225 35.1577 16.9919 36.0164 18.4913 36.5741C18.8096 36.6929 19.1278 36.7974 19.4413 36.8829C20.4552 37.1599 21.5014 37.3005 22.5525 37.3009H22.7615C24.0825 37.2826 25.3904 37.0368 26.6279 36.5741C26.8717 36.4855 27.1139 36.3857 27.3546 36.2749C27.5953 36.1641 27.828 36.0501 28.0528 35.9329C28.2808 35.8094 28.5041 35.6812 28.7273 35.5434L28.8556 35.4627H28.8936L28.9838 35.4009C29.1928 35.2648 29.4018 35.1175 29.6108 34.9592L29.7248 34.8689L29.8436 34.7787C29.9437 34.7172 30.0335 34.6403 30.1095 34.5507L30.1523 34.4984C30.1676 34.4831 30.1804 34.4655 30.1903 34.4462L30.233 34.3892C30.2904 34.2879 30.3335 34.1792 30.3613 34.0662V33.9997C30.3683 33.9286 30.3683 33.857 30.3613 33.786V33.7432C30.3583 33.655 30.3456 33.5674 30.3233 33.482C30.3266 33.452 30.3266 33.4217 30.3233 33.3917C30.3029 33.3311 30.2775 33.2723 30.2473 33.216C30.1911 33.1025 30.1155 32.9996 30.024 32.912C29.8989 32.7865 29.7482 32.6893 29.5823 32.627L29.4826 32.5937C29.3101 32.5404 29.1277 32.5268 28.9492 32.554C28.7707 32.5811 28.6007 32.6483 28.4518 32.7505L28.3093 32.8645C27.8305 33.251 27.3151 33.5899 26.7704 33.8762L26.4426 34.0377L26.1149 34.185L25.7776 34.3227H25.7159H25.6542C25.1602 34.5011 24.6516 34.6362 24.1342 34.7264L23.8254 34.7787C23.4617 34.829 23.0953 34.8575 22.7282 34.8642H22.3245C21.353 34.8449 20.3908 34.6701 19.4745 34.3464C19.1943 34.2467 18.9236 34.1375 18.6576 34.014C18.3916 33.8905 18.1303 33.7527 17.8786 33.6055C17.1981 33.2121 16.5708 32.7332 16.0119 32.1805L15.8646 32.038C15.0868 31.2232 14.4639 30.2736 14.0264 29.2356C13.9314 29.0171 13.8507 28.7986 13.7747 28.5753C13.4831 27.6981 13.3231 26.7825 13.2997 25.8584V25.6589V25.4499C13.3231 24.4788 13.4978 23.5173 13.8174 22.6C13.9172 22.3197 14.0312 22.049 14.1547 21.783C14.2757 21.5157 14.4121 21.2556 14.5632 21.004C14.9579 20.3244 15.4366 19.6972 15.9881 19.1373C16.8346 18.2898 17.8381 17.6155 18.9426 17.1518C19.1563 17.0569 19.3748 16.9761 19.598 16.9001C20.5369 16.5868 21.52 16.4264 22.5097 16.4251H22.7187C24.0809 16.4546 25.4196 16.785 26.6391 17.3927C27.8586 18.0004 28.9285 18.8703 29.7723 19.94C30.0575 20.2702 30.3179 20.6211 30.5513 20.9898C30.7754 21.377 30.9707 21.7803 31.1355 22.1962L31.2258 22.4432C31.259 22.5335 31.2923 22.619 31.316 22.695C31.4257 23.0251 31.5161 23.3613 31.5868 23.7019C31.5868 23.7637 31.6105 23.8302 31.6248 23.9014C31.639 23.9727 31.6248 24.0344 31.658 24.1057L31.696 24.3432H19.0708C18.8056 24.3424 18.5444 24.4077 18.3108 24.5332C18.2729 24.5562 18.2364 24.5816 18.2016 24.6092L18.0923 24.6947C18.0568 24.7239 18.0235 24.7556 17.9926 24.7897V24.8134L17.9498 24.8657C17.8697 24.9644 17.8085 25.0771 17.7693 25.1982C17.7693 25.2267 17.7693 25.2552 17.7456 25.2837C17.7226 25.3704 17.7114 25.4599 17.7123 25.5497V25.6161C17.7267 25.8369 17.806 26.0484 17.9403 26.2241C17.9694 26.2627 18.0012 26.2992 18.0353 26.3334C18.0666 26.3702 18.1016 26.4036 18.1398 26.4331L18.2491 26.5139H18.2776C18.413 26.593 18.5583 26.6537 18.7098 26.6944H18.8048C18.9034 26.7137 19.0036 26.7233 19.1041 26.7229H34.1992V26.5376C34.1992 26.4616 34.1992 26.3714 34.223 26.2716C34.2467 26.1719 34.223 26.0911 34.223 26.0151C34.223 25.9391 34.223 25.8204 34.223 25.7396V25.4879C34.2227 24.5976 34.1223 23.7101 33.9237 22.8422C33.8477 22.5145 33.7575 22.1867 33.653 21.8922C33.5485 21.5977 33.4345 21.2605 33.3062 20.9423C32.6739 19.4953 31.756 18.1909 30.6077 17.1071C29.4594 16.0232 28.1041 15.1822 26.6231 14.6344C26.3096 14.5157 25.9914 14.4159 25.6732 14.3257C24.6594 14.048 23.613 13.9074 22.562 13.9077V13.8934ZM11.5185 14.8862C13.8035 12.474 16.8204 10.883 20.1015 10.3595L19.788 9.73727C16.5271 10.2647 13.5262 11.8385 11.2382 14.2212L11.5707 14.8482L11.5185 14.8862ZM1.9522 18.2823L2.86893 16.4441C2.70904 16.3344 2.57883 16.1868 2.48993 16.0145C2.40104 15.8422 2.35623 15.6506 2.35953 15.4567C2.36282 15.2628 2.41411 15.0728 2.50881 14.9036C2.6035 14.7344 2.73866 14.5913 2.90218 14.4872V12.3117H0L9.97477 0H24.9274L20.4245 5.22488C15.0999 4.43165 9.74677 6.80184 6.5406 12.3497H4.16565V14.5062C4.33802 14.6106 4.48057 14.7577 4.57957 14.9332C4.67858 15.1088 4.73069 15.3069 4.73089 15.5084C4.73132 15.5963 4.72176 15.6839 4.70239 15.7696C4.68469 15.8553 4.65595 15.9383 4.61689 16.0166C4.52027 16.2109 4.37247 16.3751 4.1894 16.4916L4.98738 18.2823H1.9522ZM22.5477 10.1363C22.2469 10.1363 21.9477 10.1458 21.65 10.1648L19.7833 6.3031C14.9859 6.16061 11.0767 7.84682 8.50705 12.098L10.521 15.8694C8.30118 18.5929 7.07391 21.9905 7.04089 25.5039C7.00787 29.0173 8.17107 32.4374 10.3393 35.2022C12.5076 37.9669 15.5519 39.9118 18.9719 40.7171C22.3919 41.5225 25.9841 41.1404 29.1582 39.6337C32.3323 38.127 34.8995 35.5854 36.4377 32.4264C37.9759 29.2675 38.3937 25.6792 37.6224 22.2513C36.8511 18.8235 34.9367 15.76 32.1937 13.5643C29.4506 11.3687 26.0423 10.1715 22.5287 10.1695L22.5477 10.1363Z" fill="white"/>
</svg>
